<svg width="32" height="33" viewBox="0 0 32 33" fill="none" xmlns="http://www.w3.org/2000/svg">
<path d="M13.2844 25.8781C6.76718 25.8781 1.49137 20.4193 1.49137 13.7048C1.49137 6.97738 6.76718 1.53141 13.2844 1.53141C19.8015 1.53141 25.0774 6.97738 25.0774 13.7048C25.0774 20.4193 19.8015 25.8781 13.2844 25.8781ZM31.0731 31.1702L22.9174 22.7516C25.0277 20.3553 26.3187 17.1902 26.3187 13.7048C26.3187 6.27261 20.4843 0.25 13.2844 0.25C6.08443 0.25 0.25 6.27261 0.25 13.7048C0.25 21.1369 6.08443 27.1595 13.2844 27.1595C16.6609 27.1595 19.7271 25.8141 22.0485 23.6485L30.2042 32.0674C30.4401 32.3109 30.8372 32.3109 31.0731 32.0674C31.309 31.8111 31.309 31.4136 31.0731 31.1702Z" fill="#2A2A2A" stroke="#2A2A2A" stroke-width="0.5"/>
</svg>
