<svg width="26" height="32" viewBox="0 0 26 32" fill="none" xmlns="http://www.w3.org/2000/svg">
<path fill-rule="evenodd" clip-rule="evenodd" d="M23.8333 29.8686C23.8333 23.976 18.9822 19.2012 13 19.2012C7.01567 19.2012 2.16667 23.976 2.16667 29.8686V32H0V29.8686C0 24.4581 3.41249 19.8412 8.22899 17.9702C5.25849 16.3253 3.25 13.1955 3.25 9.60062C3.25 4.29895 7.61583 0 13 0C18.3842 0 22.75 4.29895 22.75 9.60062C22.75 13.1955 20.7393 16.3231 17.7688 17.9702C22.5875 19.8412 26 24.4581 26 29.8686V32H23.8333V29.8686ZM20.5833 9.60062C20.5833 5.47662 17.1882 2.13347 13 2.13347C8.81183 2.13347 5.41667 5.47662 5.41667 9.60062C5.41667 13.7246 8.81183 17.0678 13 17.0678C17.1882 17.0678 20.5833 13.7246 20.5833 9.60062Z" fill="#2A2A2A"/>
</svg>
