<svg width="36" height="28" viewBox="0 0 36 28" fill="none" xmlns="http://www.w3.org/2000/svg">
<path fill-rule="evenodd" clip-rule="evenodd" d="M1.28571 2.15385H34.7143C35.424 2.15385 36 1.67138 36 1.07692C36 0.482462 35.424 0 34.7143 0H1.28571C0.578572 0 4.76837e-07 0.482462 4.76837e-07 1.07692C4.76837e-07 1.67138 0.578572 2.15385 1.28571 2.15385ZM34.7143 8.61539H11.5714C10.8643 8.61539 10.2857 9.09785 10.2857 9.69231C10.2857 10.2868 10.8643 10.7692 11.5714 10.7692H34.7143C35.424 10.7692 36 10.2868 36 9.69231C36 9.09569 35.424 8.61539 34.7143 8.61539ZM34.7143 17.2285H1.28571C0.578572 17.2285 4.76837e-07 17.711 4.76837e-07 18.3055C4.76837e-07 18.8999 0.578572 19.3824 1.28571 19.3824H34.7143C35.424 19.3824 36 18.8999 36 18.3055C36 17.711 35.424 17.2285 34.7143 17.2285ZM34.7143 25.8462H15.4286C14.7214 25.8462 14.1429 26.3286 14.1429 26.9231C14.1429 27.5175 14.7214 28 15.4286 28H34.7143C35.424 28 36 27.5175 36 26.9231C36 26.3286 35.424 25.8462 34.7143 25.8462Z" fill="#2A2A2A"/>
</svg>
